# xmcd
# 
# Track frame offsets:
#     150
#     13152
#     34462
#     53867
#     75765
#     98117
#     117750
#     138992
#     161422
#     198705
# 
# Disc length: 2701
# 
# Revision: 22
# Processed by: cddbd v1.5.2PL0 Copyright (c) Steve Scherf et al.
# Submitted via: BonkEnc v1.0.5
# 
DISCID=7c0a8b0a
DTITLE=鬼束ちひろ - Sugar High
DYEAR=2002
DGENRE=Pop
TTITLE0=NOT YOUR GOD
TTITLE1=声
TTITLE2=Rebel Luck
TTITLE3=Tiger in my Love
TTITLE4=Castle・imitation (album version)
TTITLE5=漂流の羽根
TTITLE6=砂の盾
TTITLE7=King of Solitude
TTITLE8=BORDERLINE
TTITLE9=CD-EXTRA
EXTD=YEAR: 2002
EXTT0=
EXTT1=
EXTT2=
EXTT3=
EXTT4=
EXTT5=
EXTT6=
EXTT7=
EXTT8=
EXTT9=
PLAYORDER=
